<?xml version="1.0" encoding="UTF-8" standalone="no"?>
<svg
   data-name="Layer 1"
   viewBox="0 0 100 125"
   x="0px"
   y="0px"
   version="1.1"
   id="svg2"
   sodipodi:docname="right-arrow-light.svg"
   inkscape:version="1.3.2 (091e20e, 2023-11-25)"
   xmlns:inkscape="http://www.inkscape.org/namespaces/inkscape"
   xmlns:sodipodi="http://sodipodi.sourceforge.net/DTD/sodipodi-0.dtd"
   xmlns="http://www.w3.org/2000/svg"
   xmlns:svg="http://www.w3.org/2000/svg">
  <defs
     id="defs2" />
  <sodipodi:namedview
     id="namedview2"
     pagecolor="#ffffff"
     bordercolor="#000000"
     borderopacity="0.25"
     inkscape:showpageshadow="2"
     inkscape:pageopacity="0.0"
     inkscape:pagecheckerboard="0"
     inkscape:deskcolor="#d1d1d1"
     inkscape:zoom="1.888"
     inkscape:cx="49.788136"
     inkscape:cy="62.5"
     inkscape:window-width="1312"
     inkscape:window-height="449"
     inkscape:window-x="0"
     inkscape:window-y="33"
     inkscape:window-maximized="0"
     inkscape:current-layer="svg2" />
  <title
     id="title1">Forward</title>
  <path
     d="m 97.64,55.752542 -32.92,-32.92 a 8.06,8.06 0 1 0 -11.4,11.39 l 19.46,19.43 H 8.06 a 8.06,8.06 0 0 0 0,16.12 H 72.6 l -19.28,19.31 a 8.06,8.06 0 0 0 11.4,11.389998 L 97.64,67.552542 a 8,8 0 0 0 2.36,-5.7 1.27,1.27 0 0 0 0,-0.2 1.41,1.41 0 0 0 0,-0.2 8.07,8.07 0 0 0 -2.36,-5.7 z"
     id="path1"
     style="fill:#ffffff" />
</svg>
